<svg xmlns="http://www.w3.org/2000/svg" version="1.1" xmlns:xlink="http://www.w3.org/1999/xlink" xmlns:svgjs="http://svgjs.dev/svgjs" width="2000" height="621" viewBox="0 0 2000 621"><g transform="matrix(1,0,0,1,-1.2121212121212466,-1.9239897442864162)"><svg viewBox="0 0 396 123" data-background-color="#ffffff" preserveAspectRatio="xMidYMid meet" height="621" width="2000" xmlns="http://www.w3.org/2000/svg" xmlns:xlink="http://www.w3.org/1999/xlink"><g id="tight-bounds" transform="matrix(1,0,0,1,0.2400000000000091,0.38108009427895695)"><svg viewBox="0 0 395.52 122.23783981144207" height="122.23783981144207" width="395.52"><g><svg viewBox="0 0 627.2397162123891 193.85221468887642" height="122.23783981144207" width="395.52"><g transform="matrix(1,0,0,1,231.71971621238913,56.82514248194401)"><svg viewBox="0 0 395.52000000000004 80.20192972498839" height="80.20192972498839" width="395.52000000000004"><g id="textblocktransform"><svg viewBox="0 0 395.52000000000004 80.20192972498839" height="80.20192972498839" width="395.52000000000004" id="textblock"><g><svg viewBox="0 0 395.52000000000004 80.20192972498839" height="80.20192972498839" width="395.52000000000004"><g transform="matrix(1,0,0,1,0,0)"><svg width="395.52000000000004" viewBox="0.95 -39 193.79000000000002 39.3" height="80.20192972498839" data-palette-color="#e9e9e9"><path d="M15-25.4L15-25.4Q14.3-22.7 13.28-19.8 12.25-16.9 11.15-14.3L11.15-14.3Q11.1-14.2 10.9-13.83 10.7-13.45 10.6-13.5L10.6-13.5Q10.45-13.5 10.48-13.93 10.5-14.35 10.55-14.5L10.55-14.5Q10.6-15.1 10.75-16 10.9-16.9 11.08-17.85 11.25-18.8 11.48-19.7 11.7-20.6 11.9-21.25L11.9-21.25Q12-21.45 12.2-22.25 12.4-23.05 12.63-24.18 12.85-25.3 13.1-26.65 13.35-28 13.55-29.3L13.55-29.3 12.95-29.45Q12.7-27.7 12.23-25.88 11.75-24.05 11.18-22.23 10.6-20.4 10.05-18.53 9.5-16.65 9.05-14.8L9.05-14.8Q8.65-13.05 8.45-11.15 8.25-9.25 8.3-7.33 8.35-5.4 8.75-3.58 9.15-1.75 9.95-0.2L9.95-0.2Q10.1 0.15 10.05 0.15L10.05 0.15Q9.95 0.15 9.9 0.1L9.9 0.1 9.8 0Q8.4-1.65 7.73-3.58 7.05-5.5 6.88-7.55 6.7-9.6 6.95-11.7 7.2-13.8 7.65-15.8L7.65-15.8Q8.5-19.5 9.65-22.93 10.8-26.35 11.6-29.65L11.6-29.65Q8.6-30.15 5.98-30.58 3.35-31 1.1-30.55L1.1-30.55Q0.95-30.55 0.95-30.6L0.95-30.6Q0.95-30.7 1.03-30.73 1.1-30.75 1.15-30.8L1.15-30.8Q2.85-31.8 4.78-31.9 6.7-32 8.78-31.73 10.85-31.45 13.03-31.03 15.2-30.6 17.4-30.55L17.4-30.55Q18.75-30.5 20.23-30.78 21.7-31.05 23.08-31.63 24.45-32.2 25.58-33.15 26.7-34.1 27.4-35.4L27.4-35.4Q27.5-35.65 27.6-35.65L27.6-35.65 27.6-35.5 27.6-35.4Q27.05-33.5 25.9-32.27 24.75-31.05 23.28-30.3 21.8-29.55 20.13-29.28 18.45-29 16.85-29.05L16.85-29.05Q17.1-27.5 16.88-25.45 16.65-23.4 16.2-21.3 15.75-19.2 15.25-17.32 14.75-15.45 14.45-14.3L14.45-14.3Q13.85-11.9 13.05-9.4 12.25-6.9 11.6-5L11.6-5Q11.5-4.75 11.38-4.55 11.25-4.35 11.15-4.4L11.15-4.4Q11.05-4.45 11.08-4.67 11.1-4.9 11.1-5.15L11.1-5.15Q11.25-8.9 12.2-12.65 13.15-16.4 14.25-20.2L14.25-20.2Q14.85-22.3 15.43-24.45 16-26.6 16.25-29.05L16.25-29.05Q16-29.1 15.83-29.1 15.65-29.1 15.4-29.1L15.4-29.1Q15.4-28.1 15.33-27.15 15.25-26.2 15-25.4ZM16.35-36.05L16.35-36.05Q18.3-35.8 20.3-35.65 22.3-35.5 23.75-35.5L23.75-35.5Q24.25-35.5 24.25-35.35L24.25-35.35Q24.25-35.15 23.75-35L23.75-35Q21.2-34 18.38-34.1 15.55-34.2 12.65-34.65L12.65-34.65Q10.9-34.9 9.05-35.15 7.2-35.4 5.05-35.15L5.05-35.15Q4.85-35.1 4.85-35.2L4.85-35.2Q4.85-35.3 4.95-35.35 5.05-35.4 5.15-35.5L5.15-35.5Q6.1-36.2 7.6-36.43 9.1-36.65 10.73-36.63 12.35-36.6 13.85-36.4 15.35-36.2 16.35-36.05ZM8.85-34.5L8.85-34.5Q10.95-34.2 13.13-33.75 15.3-33.3 17.35-32.75L17.35-32.75Q17.45-32.65 17.78-32.58 18.1-32.5 18.1-32.35L18.1-32.35Q18.1-32.25 17.8-32.2 17.5-32.15 17.35-32.05L17.35-32.05Q16.9-31.95 16.23-31.95 15.55-31.95 14.83-31.98 14.1-32 13.4-32.05 12.7-32.1 12.2-32.2L12.2-32.2Q11.85-32.25 10.48-32.4 9.1-32.55 7.45-32.6 5.8-32.65 4.28-32.58 2.75-32.5 2.1-32.15L2.1-32.15Q1.9-32.05 1.85-32.05L1.85-32.05 1.8-32.05Q1.8-32.25 2-32.45L2-32.45Q2.5-33.1 3.38-33.55 4.25-34 5.2-34.25 6.15-34.5 7.13-34.55 8.1-34.6 8.85-34.5ZM10.5-3.55L10.5-3.55Q10.65-2.7 10.88-1.85 11.1-1 11.45-0.2L11.45-0.2Q11.65 0.2 11.5 0.2L11.5 0.2Q11.4 0.2 11.2 0.1L11.2 0.1Q11.1 0.05 11.05-0.05L11.05-0.05Q10.4-0.8 10.03-1.45 9.65-2.1 9.4-3.55L9.4-3.55Q9.3-4.1 9.28-4.95 9.25-5.8 9.3-6.6 9.35-7.4 9.45-7.95 9.55-8.5 9.75-8.5L9.75-8.5Q9.8-8.5 9.88-8.25 9.95-8 10-7.68 10.05-7.35 10.1-7.03 10.15-6.7 10.15-6.6L10.15-6.6Q10.25-5.75 10.33-5 10.4-4.25 10.5-3.55ZM25-34.85L25-34.85Q26.1-35.8 26.85-36.9L26.85-36.9Q26.95-37.1 27.05-37.1L27.05-37.1Q27.1-37.1 27.1-36.75L27.1-36.75Q27.1-36.55 27.05-36.4L27.05-36.4Q26.85-35.55 26.6-35.05 26.35-34.55 25.4-33.85L25.4-33.85Q25.05-33.55 24.45-33.27 23.85-33 23.3-32.8 22.75-32.6 22.33-32.58 21.9-32.55 21.85-32.75L21.85-32.75Q21.85-32.8 22-32.93 22.15-33.05 22.38-33.2 22.6-33.35 22.8-33.48 23-33.6 23.1-33.65L23.1-33.65Q23.6-33.9 24.08-34.2 24.55-34.5 25-34.85ZM39.75-17.6L39.75-17.6Q39.35-15.6 38.4-13.6 37.45-11.6 36.6-9.85L36.6-9.85Q36.55-9.75 36.37-9.5 36.2-9.25 36.1-9.25L36.1-9.25Q35.95-9.3 35.95-9.58 35.95-9.85 35.95-9.95L35.95-9.95Q36-10.4 36.12-11.03 36.25-11.65 36.35-12.33 36.45-13 36.57-13.63 36.7-14.25 36.85-14.75L36.85-14.75Q37.3-16.45 37.6-17.68 37.9-18.9 38.05-19.9 38.2-20.9 38.22-21.8 38.25-22.7 38.1-23.75L38.1-23.75Q38.05-24.15 38.15-24.25L38.15-24.25Q38.25-24.3 38.4-24.15 38.55-24 38.65-23.85L38.65-23.85Q39.5-22.5 39.8-20.88 40.1-19.25 39.75-17.6ZM40.75-21.25L40.95-20.95Q41.6-20 41.6-18.45 41.6-16.9 41.3-15.28 41-13.65 40.55-12.15 40.1-10.65 39.9-9.75L39.9-9.75Q39.5-8 38.8-6.25 38.1-4.5 37.6-3.15L37.6-3.15Q37.55-3 37.45-2.83 37.35-2.65 37.25-2.65L37.25-2.65Q37.15-2.65 37.15-2.85 37.15-3.05 37.15-3.2L37.15-3.2Q37-5.95 37.75-8.58 38.5-11.2 39.35-13.9L39.35-13.9Q39.85-15.55 40.3-17.28 40.75-19 40.7-21.05L40.7-21.05Q40.7-21.25 40.75-21.25L40.75-21.25ZM36.25-21.8L36.25-21.8Q33.2-20.55 31.07-18.23 28.95-15.9 27.8-13L27.8-13Q27.3-11.7 27.05-10.68 26.8-9.65 26.65-8.45L26.65-8.45Q26.6-8.2 26.8-7.95 27-7.7 27.2-7.95L27.2-7.95Q28.1-9.05 29.5-10.75 30.9-12.45 32.3-14.35 33.7-16.25 34.82-18.2 35.95-20.15 36.25-21.8ZM32.9-4.85L32.9-4.85Q32.15-3.8 31.45-2.9 30.75-2 29.9-1.33 29.05-0.65 28-0.25 26.95 0.15 25.6 0.2L25.6 0.2Q23.35 0.3 22.17-0.95 21-2.2 20.55-4 20.1-5.8 20.22-7.73 20.35-9.65 20.75-10.9L20.75-10.9Q21.3-12.65 22.07-14.23 22.85-15.8 23.72-17.07 24.6-18.35 25.52-19.28 26.45-20.2 27.35-20.7L27.35-20.7Q27.4-20.7 27.57-20.8 27.75-20.9 27.75-20.75L27.75-20.75Q27.8-20.75 27.7-20.6 27.6-20.45 27.5-20.35L27.5-20.35Q24.9-17.65 23.37-14.25 21.85-10.85 21.65-7.25L21.65-7.25Q21.6-6.35 21.72-5.3 21.85-4.25 22.22-3.33 22.6-2.4 23.3-1.78 24-1.15 25.2-1.15L25.2-1.15Q26.15-1.15 26.95-1.48 27.75-1.8 28.45-2.33 29.15-2.85 29.72-3.48 30.3-4.1 30.75-4.65L30.75-4.65Q31.75-5.9 32.6-7.25L32.6-7.25Q32.6-8.25 32.72-9.2 32.85-10.15 33.1-11.1L33.1-11.1Q33.25-11.8 33.37-12.23 33.5-12.65 33.62-13.03 33.75-13.4 33.87-13.83 34-14.25 34.25-14.95L34.25-14.95Q33.45-13.55 32.67-12.33 31.9-11.1 31.02-9.98 30.15-8.85 29.22-7.78 28.3-6.7 27.2-5.6L27.2-5.6Q26.35-4.75 25.8-5.05 25.25-5.35 25.15-6.45L25.15-6.45Q25.05-8.15 25.32-9.75 25.6-11.35 26.3-13.1L26.3-13.1Q26.95-14.7 27.92-16.2 28.9-17.7 30.17-18.93 31.45-20.15 33-21.03 34.55-21.9 36.3-22.2L36.3-22.2Q36.4-22.75 36.47-23.15 36.55-23.55 36.6-23.95L36.6-23.95Q36.7-24.5 36.7-24.5L36.7-24.5Q36.8-24.55 36.92-24.4 37.05-24.25 37.15-24L37.15-24Q37.75-22.35 37.55-20.7 37.35-19.05 36.82-17.35 36.3-15.65 35.6-13.88 34.9-12.1 34.45-10.3L34.45-10.3Q33.85-7.75 34.12-5.03 34.4-2.3 36.25-0.1L36.25-0.1Q36.4 0.1 36.4 0.1L36.4 0.1Q36.35 0.15 36.1 0L36.1 0Q34.65-0.9 33.92-2.18 33.2-3.45 32.9-4.85ZM34.65-22.55L34.65-22.55Q34.75-22.45 34.62-22.4 34.5-22.35 34.1-22.25L34.1-22.25Q33.45-22.05 32.52-21.5 31.6-20.95 30.57-20.1 29.55-19.25 28.55-18.13 27.55-17 26.8-15.7L26.8-15.7Q26.05-14.35 25.52-13.05 25-11.75 24.67-10.68 24.35-9.6 24.2-8.83 24.05-8.05 24.05-7.75L24.05-7.75Q24.05-7 24.05-6.18 24.05-5.35 24.25-4.7 24.45-4.05 24.95-3.7 25.45-3.35 26.45-3.5L26.45-3.5Q26.5-3.5 26.7-3.58 26.9-3.65 27.1-3.73 27.3-3.8 27.47-3.85 27.65-3.9 27.7-3.9L27.7-3.9Q27.75-3.8 27.62-3.65 27.5-3.5 27.3-3.33 27.1-3.15 26.92-3 26.75-2.85 26.7-2.8L26.7-2.8Q25.45-2.05 24.6-2.35 23.75-2.65 23.27-3.48 22.8-4.3 22.62-5.43 22.45-6.55 22.5-7.45L22.5-7.45Q22.6-9.2 23.05-10.93 23.5-12.65 24.2-14.4L24.2-14.4Q24.75-15.75 25.85-17.18 26.95-18.6 28.32-19.8 29.7-21 31.2-21.78 32.7-22.55 34.1-22.6L34.1-22.6Q34.6-22.6 34.65-22.55ZM37.6-0.1L37.6-0.1Q37.7 0.05 37.65 0.1L37.65 0.1Q37.5 0.1 37.25 0L37.25 0Q37.1-0.1 36.45-0.6 35.8-1.1 35.5-2.2L35.5-2.2Q35.4-2.6 35.32-3.23 35.25-3.85 35.25-4.4 35.25-4.95 35.32-5.35 35.4-5.75 35.55-5.75L35.55-5.75Q35.7-5.75 35.87-5.15 36.05-4.55 36.1-4.4L36.1-4.4Q36.25-3.7 36.37-3.18 36.5-2.65 36.65-2.2L36.65-2.2Q36.85-1.65 37.17-0.95 37.5-0.25 37.6-0.1ZM47.65-18.45L47.65-18.45Q47.7-18.9 47.95-19.53 48.2-20.15 48.62-20.73 49.05-21.3 49.65-21.78 50.25-22.25 51-22.4L51-22.4Q52.6-22.7 53.65-22.2 54.7-21.7 55.25-21.05L55.25-21.05Q55.45-20.75 55.4-20.7L55.4-20.7Q55.3-20.6 55.05-20.75L55.05-20.75Q54.75-20.95 54.07-21.1 53.4-21.25 52.62-21.18 51.85-21.1 51.12-20.7 50.4-20.3 49.95-19.4L49.95-19.4Q49.55-18.55 49.4-17.65 49.25-16.75 49.22-15.98 49.2-15.2 49.25-14.65 49.3-14.1 49.3-13.9L49.3-13.9Q49.4-13.35 49.47-12.53 49.55-11.7 49.55-10.85 49.55-10 49.5-9.18 49.45-8.35 49.3-7.75L49.3-7.75Q49.25-7.6 49.17-7.25 49.1-6.9 49-6.9L49-6.9Q48.75-6.9 48.75-7.25 48.75-7.6 48.75-7.75L48.75-7.75Q48.65-9 48.4-10.28 48.15-11.55 47.92-12.9 47.7-14.25 47.6-15.63 47.5-17 47.65-18.45ZM45.9-8.55L45.9-8.55Q45.95-9.55 45.72-11.38 45.5-13.2 45.55-15.6L45.55-15.6Q45.6-16.85 45.8-18.18 46-19.5 46.75-20.8L46.75-20.8Q47.55-22.2 48.77-22.88 50-23.55 50.9-23.5L50.9-23.5Q51.05-23.5 51.2-23.5 51.35-23.5 51.35-23.45L51.35-23.45Q51.35-23.35 51.3-23.38 51.25-23.4 50.95-23.3L50.95-23.3Q50.05-23.05 49.35-22.48 48.65-21.9 48.15-21.15 47.65-20.4 47.35-19.6 47.05-18.8 47-18.15L47-18.15Q46.7-15.4 47.05-13.35L47.05-13.35Q47.3-11.7 47.45-9.93 47.6-8.15 47.32-6.68 47.05-5.2 46.27-4.23 45.5-3.25 43.9-3.15L43.9-3.15Q43.75-3.15 43.52-3.18 43.3-3.2 43.3-3.3L43.3-3.3Q43.3-3.4 43.75-3.65L43.75-3.65Q45.05-4.25 45.45-5.4 45.85-6.55 45.9-8.55ZM40.6-2.65L40.6-2.65Q41.3-1.55 42.82-1.03 44.35-0.5 46.45-1.1L46.45-1.1Q47.5-1.4 48.3-2.15 49.1-2.9 49.62-3.83 50.15-4.75 50.42-5.75 50.7-6.75 50.75-7.6L50.75-7.6Q50.8-9 50.67-10.35 50.55-11.7 50.37-12.98 50.2-14.25 50.07-15.45 49.95-16.65 50.05-17.8L50.05-17.8Q50.15-19.05 50.75-19.7 51.35-20.35 52.22-20.53 53.1-20.7 54.05-20.4 55-20.1 55.8-19.45L55.8-19.45Q56-19.35 55.95-19.2L55.95-19.2Q55.95-19.1 55.85-19.15 55.75-19.2 55.65-19.25L55.65-19.25Q53.8-19.85 52.77-19.6 51.75-19.35 51.65-17.8L51.65-17.8Q51.55-16 51.92-13.58 52.3-11.15 52.2-8.2L52.2-8.2Q52.25-7.2 51.97-5.9 51.7-4.6 51.07-3.38 50.45-2.15 49.42-1.2 48.4-0.25 47 0L47 0Q44.35 0.4 42.77-0.3 41.2-1 40.5-2.45L40.5-2.45Q40.4-2.75 40.4-2.8L40.4-2.8 40.45-2.8Q40.45-2.8 40.6-2.65ZM42.8-2.65L42.8-2.65Q43.75-2.4 45.1-2.45L45.1-2.45Q45.55-2.5 46.2-2.7 46.85-2.9 46.9-2.8L46.9-2.8Q47.05-2.6 46.6-2.3 46.15-2 45.45-1.78 44.75-1.55 44-1.48 43.25-1.4 42.75-1.6L42.75-1.6Q41.8-2 41.37-2.48 40.95-2.95 40.6-3.65L40.6-3.65 40.5-3.85Q40.4-4.05 40.45-4.1L40.45-4.1Q40.5-4.15 40.6-4.1L40.6-4.1Q40.65-4.05 40.65-4L40.65-4Q41.25-3.45 41.67-3.18 42.1-2.9 42.8-2.65ZM69.99-22.2L69.99-22.2Q70.04-22.15 70.04-21.98 70.04-21.8 69.99-21.7L69.99-21.7Q69.54-20.25 68.44-19.65 67.34-19.05 66.49-19.05L66.49-19.05Q65.44-19.05 64.34-19.23 63.24-19.4 62.24-20.15L62.24-20.15Q62.14-20.25 61.99-20.35 61.84-20.45 61.84-20.55L61.84-20.55Q61.84-20.7 61.99-20.78 62.14-20.85 62.24-20.9L62.24-20.9Q62.69-21 63.42-21.08 64.14-21.15 64.84-21.05L64.84-21.05Q65.34-20.95 66.04-20.95 66.74-20.95 67.47-21.05 68.19-21.15 68.79-21.38 69.39-21.6 69.69-22.05L69.69-22.05Q69.84-22.25 69.99-22.2ZM70.34-23.75L70.34-23.75 70.19-23.5Q69.34-22.4 68.39-22.08 67.44-21.75 66.39-21.8 65.34-21.85 64.27-22.08 63.19-22.3 62.14-22.35L62.14-22.35Q60.74-22.4 59.34-21.5 57.94-20.6 56.94-18.35L56.94-18.35Q56.79-18.05 56.74-18.23 56.69-18.4 56.74-18.55L56.74-18.55Q57.14-20.05 57.69-21.05 58.24-22.05 58.87-22.68 59.49-23.3 60.19-23.6 60.89-23.9 61.64-24L61.64-24Q62.49-26.85 62.97-29.58 63.44-32.3 63.04-34.75L63.04-34.75Q63.04-34.95 63.04-34.95L63.04-34.95Q63.14-35 63.24-34.9 63.34-34.8 63.34-34.75L63.34-34.75Q64.44-32.35 64.24-29.63 64.04-26.9 63.24-23.9L63.24-23.9Q63.49-23.85 63.64-23.85 63.79-23.85 63.99-23.85L63.99-23.85Q64.24-25.15 64.47-26.63 64.69-28.1 64.82-29.45 64.94-30.8 64.89-31.9 64.84-33 64.54-33.55L64.54-33.55Q64.39-34 64.54-34L64.54-34Q64.64-34 64.69-33.9 64.74-33.8 64.84-33.7L64.84-33.7Q65.54-33 65.94-31.8 66.34-30.6 66.49-29.25 66.64-27.9 66.59-26.58 66.54-25.25 66.29-24.25L66.29-24.25 66.09-23.45Q66.24-23.35 66.39-23.35 66.54-23.35 66.69-23.3L66.69-23.3Q66.99-24.8 67.22-26.3 67.44-27.8 67.39-29.45L67.39-29.45Q67.39-29.8 67.44-29.8L67.44-29.8Q67.54-29.8 67.59-29.65 67.64-29.5 67.69-29.4L67.69-29.4Q68.29-28.3 68.27-26.65 68.24-25 67.99-23.15L67.99-23.15Q69.09-23.15 70.09-23.75L70.09-23.75Q70.34-23.9 70.34-23.75ZM59.99-20.35L59.99-20.35Q59.99-20.1 59.72-19.85 59.44-19.6 59.29-19.5L59.29-19.5Q59.04-19.3 58.72-19.03 58.39-18.75 58.14-18.45L58.14-18.45Q57.89-18.05 57.67-17.75 57.44-17.45 57.29-16.9L57.29-16.9Q57.24-16.8 57.17-16.73 57.09-16.65 57.04-16.7L57.04-16.7Q56.89-16.85 57.04-17.35L57.04-17.35Q57.24-18.1 57.44-18.57 57.64-19.05 58.19-19.6L58.19-19.6Q58.39-19.8 58.69-20 58.99-20.2 59.29-20.35 59.59-20.5 59.79-20.5 59.99-20.5 59.99-20.35ZM63.89-0.25L63.89-0.25Q64.14-0.35 64.09-0.2 64.04-0.05 63.94 0L63.94 0Q63.04 0.3 62.04-0.1 61.04-0.5 60.19-1.35 59.34-2.2 58.74-3.33 58.14-4.45 57.99-5.55L57.99-5.55Q57.74-7.9 57.94-10.1 58.14-12.3 58.69-14.45L58.69-14.45 59.54-17.6Q59.24-17.6 58.94-17.75L58.94-17.75Q58.59-17.85 58.59-18L58.59-18Q58.59-18.1 58.94-18.3L58.94-18.3Q60.34-19 61.77-18.9 63.19-18.8 64.64-18.55L64.64-18.55Q65.54-18.4 66.47-18.32 67.39-18.25 68.49-18.7L68.49-18.7Q68.59-18.8 68.69-18.75L68.69-18.75Q68.79-18.65 68.64-18.4L68.64-18.4Q68.34-17.75 67.79-17.45 67.24-17.15 66.64-17L66.64-17Q66.24-15.7 65.94-14.68 65.64-13.65 65.44-12.95L65.44-12.95Q64.89-10.55 64.17-8.08 63.44-5.6 63.19-3.9L63.19-3.9Q63.09-3.35 62.99-3.3L62.99-3.3Q62.89-3.25 62.79-3.5 62.69-3.75 62.64-3.9L62.64-3.9Q62.44-5.35 62.57-6.93 62.69-8.5 63.04-10.15 63.39-11.8 63.84-13.48 64.29-15.15 64.79-16.85L64.79-16.85Q64.54-16.85 64.29-16.85 64.04-16.85 63.79-16.9L63.79-16.9Q63.39-15.85 62.97-14.83 62.54-13.8 62.14-12.9L62.14-12.9Q62.09-12.8 61.92-12.43 61.74-12.05 61.64-12.05L61.64-12.05Q61.44-12.1 61.49-12.53 61.54-12.95 61.54-13.1L61.54-13.1Q61.64-13.85 61.87-14.85 62.09-15.85 62.29-17L62.29-17Q62.04-17.05 61.74-17.07 61.44-17.1 61.14-17.2L61.14-17.2Q60.84-16.2 60.57-15.25 60.29-14.3 60.04-13.35L60.04-13.35Q59.64-11.6 59.44-9.63 59.24-7.65 59.44-5.55L59.44-5.55Q59.54-4.6 59.97-3.6 60.39-2.6 60.99-1.8 61.59-1 62.37-0.55 63.14-0.1 63.89-0.25ZM64.34-1.35L64.34-1.35Q64.59-1.55 64.64-1.38 64.69-1.2 64.44-1.05L64.44-1.05Q64.24-0.9 63.92-0.83 63.59-0.75 63.19-0.8 62.79-0.85 62.34-1.1 61.89-1.35 61.49-1.9L61.49-1.9Q61.14-2.35 60.92-3.2 60.69-4.05 60.59-4.88 60.49-5.7 60.54-6.3 60.59-6.9 60.79-6.9L60.79-6.9Q61.04-6.9 61.17-6.2 61.29-5.5 61.39-5.05L61.39-5.05Q61.59-4.25 61.94-3.4 62.29-2.55 62.69-2.05L62.69-2.05Q63.19-1.4 63.59-1.28 63.99-1.15 64.34-1.35ZM82.89-20.4L82.89-20.4Q83.29-19.9 83.52-19.15 83.74-18.4 83.69-17.53 83.64-16.65 83.29-15.7 82.94-14.75 82.19-13.85L82.19-13.85Q80.74-12.15 79.02-11.23 77.29-10.3 75.89-10.3L75.89-10.3Q75.04-10.3 75.89-10.6L75.89-10.6Q76.34-10.75 76.97-11.08 77.59-11.4 78.29-11.88 78.99-12.35 79.72-13 80.44-13.65 81.04-14.5L81.04-14.5Q82.04-15.9 82.22-17.23 82.39-18.55 81.69-19.25L81.69-19.25Q81.09-19.85 80.29-19.93 79.49-20 77.89-19.05L77.89-19.05Q76.44-18.2 75.29-16.95 74.14-15.7 73.14-14.3L73.14-14.3Q72.59-13.6 72.42-13.6 72.24-13.6 72.54-14.5L72.54-14.5Q73.14-16.25 74.22-17.75 75.29-19.25 76.79-20.3L76.79-20.3Q77.89-21.05 78.81-21.35 79.74-21.65 80.52-21.6 81.29-21.55 81.89-21.23 82.49-20.9 82.89-20.4ZM85.59-16.9L85.59-16.9Q85.39-15.7 84.97-14.88 84.54-14.05 84.02-13.48 83.49-12.9 82.97-12.55 82.44-12.2 82.04-11.9L82.04-11.9Q81.84-11.75 81.74-11.85 81.64-11.95 81.89-12.2L81.89-12.2Q82.79-12.95 83.72-14.23 84.64-15.5 84.69-17.05L84.69-17.05Q84.69-19.7 83.39-21.1L83.39-21.1Q82.09-22.5 80.14-22.33 78.19-22.15 76.09-20.8L76.09-20.8Q74.74-19.95 73.72-18.82 72.69-17.7 71.94-16.43 71.19-15.15 70.72-13.8 70.24-12.45 70.04-11.1L70.04-11.1Q69.84-9.8 69.67-8.3 69.49-6.8 69.67-5.35 69.84-3.9 70.59-2.58 71.34-1.25 72.94-0.3L72.94-0.3Q73.19-0.15 73.47-0.1 73.74-0.05 73.74 0L73.74 0Q73.74 0.1 73.49 0.13 73.24 0.15 72.94 0.05L72.94 0.05Q71.69-0.2 70.81-0.98 69.94-1.75 69.39-2.75 68.84-3.75 68.54-4.85 68.24-5.95 68.19-6.85L68.19-6.85Q67.89-10.8 69.29-14.65L69.29-14.65Q69.59-15.45 70.06-16.45 70.54-17.45 71.24-18.48 71.94-19.5 72.89-20.48 73.84-21.45 75.04-22.2L75.04-22.2Q76.19-22.9 77.44-23.25 78.69-23.6 79.94-23.58 81.19-23.55 82.29-23.13 83.39-22.7 84.24-21.85L84.24-21.85Q84.99-21.05 85.42-19.8 85.84-18.55 85.59-16.9ZM81.04-18.7L81.04-18.7Q81.64-18 81.19-16.53 80.74-15.05 79.09-13.55L79.09-13.55Q78.19-12.7 77.34-12.18 76.49-11.65 75.19-11.25L75.19-11.25Q74.64-9.35 74.49-7.5 74.34-5.65 74.59-4.5L74.59-4.5Q74.64-4.05 74.92-3.63 75.19-3.2 75.72-2.98 76.24-2.75 77.09-2.8 77.94-2.85 79.19-3.35L79.19-3.35Q79.54-3.5 79.62-3.43 79.69-3.35 79.29-3.1L79.29-3.1Q78.39-2.4 77.39-2.13 76.39-1.85 75.52-1.95 74.64-2.05 74.02-2.55 73.39-3.05 73.19-3.9L73.19-3.9Q72.79-5.65 72.84-7.55 72.89-9.45 73.42-11.3 73.94-13.15 74.92-14.78 75.89-16.4 77.34-17.55L77.34-17.55Q80.04-19.7 81.04-18.7ZM80.54-2.75L80.54-2.75Q80.19-2.25 79.67-1.78 79.14-1.3 78.47-0.93 77.79-0.55 77.06-0.3 76.34-0.05 75.59-0.05L75.59-0.05Q74.29-0.05 73.17-0.63 72.04-1.2 71.44-2.95L71.44-2.95Q71.34-3.15 71.34-3.33 71.34-3.5 71.44-3.5L71.44-3.5Q71.64-3.6 71.84-3.38 72.04-3.15 72.24-2.9L72.24-2.9Q72.79-2.25 73.67-1.75 74.54-1.25 75.34-1.25L75.34-1.25Q76.84-1.25 77.94-1.7 79.04-2.15 80.04-2.9L80.04-2.9Q80.29-3.05 80.62-3.2 80.94-3.35 80.54-2.75ZM79.84-17.35L79.84-17.35Q79.64-17.75 78.39-16.7L78.39-16.7Q77.24-15.8 76.56-14.63 75.89-13.45 75.39-12.05L75.39-12.05Q76.34-12.5 77.14-13.08 77.94-13.65 78.64-14.2L78.64-14.2Q79.39-14.85 79.74-15.9 80.09-16.95 79.84-17.35ZM99.79-25.4L99.79-25.4Q99.09-22.7 98.06-19.8 97.04-16.9 95.94-14.3L95.94-14.3Q95.89-14.2 95.69-13.83 95.49-13.45 95.39-13.5L95.39-13.5Q95.24-13.5 95.26-13.93 95.29-14.35 95.34-14.5L95.34-14.5Q95.39-15.1 95.54-16 95.69-16.9 95.86-17.85 96.04-18.8 96.26-19.7 96.49-20.6 96.69-21.25L96.69-21.25Q96.79-21.45 96.99-22.25 97.19-23.05 97.41-24.18 97.64-25.3 97.89-26.65 98.14-28 98.34-29.3L98.34-29.3 97.74-29.45Q97.49-27.7 97.01-25.88 96.54-24.05 95.96-22.23 95.39-20.4 94.84-18.53 94.29-16.65 93.84-14.8L93.84-14.8Q93.44-13.05 93.24-11.15 93.04-9.25 93.09-7.33 93.14-5.4 93.54-3.58 93.94-1.75 94.74-0.2L94.74-0.2Q94.89 0.15 94.84 0.15L94.84 0.15Q94.74 0.15 94.69 0.1L94.69 0.1 94.59 0Q93.19-1.65 92.51-3.58 91.84-5.5 91.66-7.55 91.49-9.6 91.74-11.7 91.99-13.8 92.44-15.8L92.44-15.8Q93.29-19.5 94.44-22.93 95.59-26.35 96.39-29.65L96.39-29.65Q93.39-30.15 90.76-30.58 88.14-31 85.89-30.55L85.89-30.55Q85.74-30.55 85.74-30.6L85.74-30.6Q85.74-30.7 85.81-30.73 85.89-30.75 85.94-30.8L85.94-30.8Q87.64-31.8 89.56-31.9 91.49-32 93.56-31.73 95.64-31.45 97.81-31.03 99.99-30.6 102.19-30.55L102.19-30.55Q103.54-30.5 105.01-30.78 106.49-31.05 107.86-31.63 109.24-32.2 110.36-33.15 111.49-34.1 112.19-35.4L112.19-35.4Q112.29-35.65 112.39-35.65L112.39-35.65 112.39-35.5 112.39-35.4Q111.84-33.5 110.69-32.27 109.54-31.05 108.06-30.3 106.59-29.55 104.91-29.28 103.24-29 101.64-29.05L101.64-29.05Q101.89-27.5 101.66-25.45 101.44-23.4 100.99-21.3 100.54-19.2 100.04-17.32 99.54-15.45 99.24-14.3L99.24-14.3Q98.64-11.9 97.84-9.4 97.04-6.9 96.39-5L96.39-5Q96.29-4.75 96.16-4.55 96.04-4.35 95.94-4.4L95.94-4.4Q95.84-4.45 95.86-4.67 95.89-4.9 95.89-5.15L95.89-5.15Q96.04-8.9 96.99-12.65 97.94-16.4 99.04-20.2L99.04-20.2Q99.64-22.3 100.21-24.45 100.79-26.6 101.04-29.05L101.04-29.05Q100.79-29.1 100.61-29.1 100.44-29.1 100.19-29.1L100.19-29.1Q100.19-28.1 100.11-27.15 100.04-26.2 99.79-25.4ZM101.14-36.05L101.14-36.05Q103.09-35.8 105.09-35.65 107.09-35.5 108.54-35.5L108.54-35.5Q109.04-35.5 109.04-35.35L109.04-35.35Q109.04-35.15 108.54-35L108.54-35Q105.99-34 103.16-34.1 100.34-34.2 97.44-34.65L97.44-34.65Q95.69-34.9 93.84-35.15 91.99-35.4 89.84-35.15L89.84-35.15Q89.64-35.1 89.64-35.2L89.64-35.2Q89.64-35.3 89.74-35.35 89.84-35.4 89.94-35.5L89.94-35.5Q90.89-36.2 92.39-36.43 93.89-36.65 95.51-36.63 97.14-36.6 98.64-36.4 100.14-36.2 101.14-36.05ZM93.64-34.5L93.64-34.5Q95.74-34.2 97.91-33.75 100.09-33.3 102.14-32.75L102.14-32.75Q102.24-32.65 102.56-32.58 102.89-32.5 102.89-32.35L102.89-32.35Q102.89-32.25 102.59-32.2 102.29-32.15 102.14-32.05L102.14-32.05Q101.69-31.95 101.01-31.95 100.34-31.95 99.61-31.98 98.89-32 98.19-32.05 97.49-32.1 96.99-32.2L96.99-32.2Q96.64-32.25 95.26-32.4 93.89-32.55 92.24-32.6 90.59-32.65 89.06-32.58 87.54-32.5 86.89-32.15L86.89-32.15Q86.69-32.05 86.64-32.05L86.64-32.05 86.59-32.05Q86.59-32.25 86.79-32.45L86.79-32.45Q87.29-33.1 88.16-33.55 89.04-34 89.99-34.25 90.94-34.5 91.91-34.55 92.89-34.6 93.64-34.5ZM95.29-3.55L95.29-3.55Q95.44-2.7 95.66-1.85 95.89-1 96.24-0.2L96.24-0.2Q96.44 0.2 96.29 0.2L96.29 0.2Q96.19 0.2 95.99 0.1L95.99 0.1Q95.89 0.05 95.84-0.05L95.84-0.05Q95.19-0.8 94.81-1.45 94.44-2.1 94.19-3.55L94.19-3.55Q94.09-4.1 94.06-4.95 94.04-5.8 94.09-6.6 94.14-7.4 94.24-7.95 94.34-8.5 94.54-8.5L94.54-8.5Q94.59-8.5 94.66-8.25 94.74-8 94.79-7.68 94.84-7.35 94.89-7.03 94.94-6.7 94.94-6.6L94.94-6.6Q95.04-5.75 95.11-5 95.19-4.25 95.29-3.55ZM109.79-34.85L109.79-34.85Q110.89-35.8 111.64-36.9L111.64-36.9Q111.74-37.1 111.84-37.1L111.84-37.1Q111.89-37.1 111.89-36.75L111.89-36.75Q111.89-36.55 111.84-36.4L111.84-36.4Q111.64-35.55 111.39-35.05 111.14-34.55 110.19-33.85L110.19-33.85Q109.84-33.55 109.24-33.27 108.64-33 108.09-32.8 107.54-32.6 107.11-32.58 106.69-32.55 106.64-32.75L106.64-32.75Q106.64-32.8 106.79-32.93 106.94-33.05 107.16-33.2 107.39-33.35 107.59-33.48 107.79-33.6 107.89-33.65L107.89-33.65Q108.39-33.9 108.86-34.2 109.34-34.5 109.79-34.85ZM113.54-16.65L113.54-16.65Q113.14-14.95 112.41-13.08 111.69-11.2 110.79-9.6L110.79-9.6Q110.79-9.5 110.66-9.28 110.54-9.05 110.34-9.05L110.34-9.05Q110.24-9.05 110.21-9.35 110.19-9.65 110.24-9.75L110.24-9.75Q110.24-10.55 110.44-11.88 110.64-13.2 110.94-14.05L110.94-14.05Q111.04-14.35 111.26-15.5 111.49-16.65 111.66-18.07 111.84-19.5 111.86-20.83 111.89-22.15 111.54-22.8L111.54-22.8 111.54-23Q111.74-23.15 111.99-22.9L111.99-22.9Q112.64-22.35 113.01-21.55 113.39-20.75 113.56-19.88 113.74-19 113.71-18.15 113.69-17.3 113.54-16.65ZM115.49-16.85L115.49-16.85Q116.04-17.55 116.54-17.85 117.04-18.15 117.54-18.35L117.54-18.35Q117.59-18.35 117.79-18.4 117.99-18.45 118.09-18.3L118.09-18.3Q118.19-18.15 118.04-17.95 117.89-17.75 117.79-17.65L117.79-17.65Q117.44-17.3 117.01-16.88 116.59-16.45 116.24-16.05L116.24-16.05Q115.74-15.5 115.44-14.78 115.14-14.05 114.99-13.3L114.99-13.3Q115.84-14.2 116.61-15 117.39-15.8 118.29-16.5L118.29-16.5Q119.44-17.35 120.29-18.7 121.14-20.05 121.49-22.65L121.49-22.65Q121.59-22.9 121.74-22.95 121.89-23 121.89-22.6L121.89-22.6Q122.04-19.7 121.29-18 120.54-16.3 119.04-15.15L119.04-15.15Q118.24-14.55 117.44-13.85 116.64-13.15 115.91-12.3 115.19-11.45 114.59-10.3 113.99-9.15 113.54-7.65L113.54-7.65Q113.19-6.5 112.84-5.48 112.49-4.45 112.09-3.5L112.09-3.5Q111.99-3.15 111.79-3.15L111.79-3.15Q111.64-3.2 111.64-3.65L111.64-3.65Q111.39-6.05 111.96-8.43 112.54-10.8 113.34-13.35L113.34-13.35Q113.69-14.6 114.16-15.85 114.64-17.1 114.59-18.7L114.59-18.7Q114.59-19.25 115.04-19.85 115.49-20.45 116.14-20.98 116.79-21.5 117.49-21.88 118.19-22.25 118.69-22.4L118.69-22.4Q119.14-22.55 119.14-22.35 119.14-22.15 118.84-21.85L118.84-21.85Q117.79-20.9 116.71-19.6 115.64-18.3 115.49-16.85ZM111.14-0.05L111.14-0.05Q111.09 0 111.06-0.03 111.04-0.05 110.79-0.2L110.79-0.2Q109.29-1.3 108.44-2.6 107.59-3.9 107.21-5.28 106.84-6.65 106.89-8.03 106.94-9.4 107.24-10.7L107.24-10.7Q107.64-12.45 108.21-14.18 108.79-15.9 109.29-17.53 109.79-19.15 110.04-20.73 110.29-22.3 110.04-23.75L110.04-23.75Q110.04-23.85 110.19-23.9L110.19-23.9Q110.24-23.9 110.29-23.83 110.34-23.75 110.39-23.7L110.39-23.7Q111.34-22.1 111.34-20.43 111.34-18.75 110.89-17.03 110.44-15.3 109.76-13.53 109.09-11.75 108.69-9.95L108.69-9.95Q108.19-7.65 108.61-5.05 109.04-2.45 110.94-0.4L110.94-0.4Q111.04-0.25 111.14-0.2 111.24-0.15 111.14-0.05ZM112.64 0L112.64 0Q112.54 0 112.44-0.05L112.44-0.05 112.24-0.15Q111.54-0.6 110.99-1.13 110.44-1.65 110.04-2.65L110.04-2.65Q109.89-3 109.79-3.58 109.69-4.15 109.66-4.65 109.64-5.15 109.71-5.5 109.79-5.85 109.99-5.8L109.99-5.8Q110.14-5.8 110.31-5.4 110.49-5 110.59-4.6L110.59-4.6Q110.69-4.05 110.81-3.55 110.94-3.05 111.14-2.65L111.14-2.65Q111.69-1.4 112.59-0.25L112.59-0.25Q112.69 0 112.64 0ZM120.79-22.45L120.79-22.45Q120.79-21.4 120.19-20.6 119.59-19.8 118.74-19.25L118.74-19.25Q118.59-19.15 118.54-19.28 118.49-19.4 118.49-19.45L118.49-19.45Q118.49-19.75 118.74-20.18 118.99-20.6 119.31-21.08 119.64-21.55 119.94-22.05 120.24-22.55 120.34-22.95L120.34-22.95Q120.49-23.2 120.64-22.95 120.79-22.7 120.79-22.45ZM140.93-17.6L140.93-17.6Q140.53-15.6 139.58-13.6 138.63-11.6 137.78-9.85L137.78-9.85Q137.73-9.75 137.56-9.5 137.38-9.25 137.28-9.25L137.28-9.25Q137.13-9.3 137.13-9.58 137.13-9.85 137.13-9.95L137.13-9.95Q137.18-10.4 137.31-11.03 137.43-11.65 137.53-12.33 137.63-13 137.76-13.63 137.88-14.25 138.03-14.75L138.03-14.75Q138.48-16.45 138.78-17.68 139.08-18.9 139.23-19.9 139.38-20.9 139.41-21.8 139.43-22.7 139.28-23.75L139.28-23.75Q139.23-24.15 139.33-24.25L139.33-24.25Q139.43-24.3 139.58-24.15 139.73-24 139.83-23.85L139.83-23.85Q140.68-22.5 140.98-20.88 141.28-19.25 140.93-17.6ZM141.93-21.25L142.13-20.95Q142.78-20 142.78-18.45 142.78-16.9 142.48-15.28 142.18-13.65 141.73-12.15 141.28-10.65 141.08-9.75L141.08-9.75Q140.68-8 139.98-6.25 139.28-4.5 138.78-3.15L138.78-3.15Q138.73-3 138.63-2.83 138.53-2.65 138.43-2.65L138.43-2.65Q138.33-2.65 138.33-2.85 138.33-3.05 138.33-3.2L138.33-3.2Q138.18-5.95 138.93-8.58 139.68-11.2 140.53-13.9L140.53-13.9Q141.03-15.55 141.48-17.28 141.93-19 141.88-21.05L141.88-21.05Q141.88-21.25 141.93-21.25L141.93-21.25ZM137.43-21.8L137.43-21.8Q134.38-20.55 132.26-18.23 130.13-15.9 128.98-13L128.98-13Q128.48-11.7 128.23-10.68 127.98-9.65 127.83-8.45L127.83-8.45Q127.78-8.2 127.98-7.95 128.18-7.7 128.38-7.95L128.38-7.95Q129.28-9.05 130.68-10.75 132.08-12.45 133.48-14.35 134.88-16.25 136.01-18.2 137.13-20.15 137.43-21.8ZM134.08-4.85L134.08-4.85Q133.33-3.8 132.63-2.9 131.93-2 131.08-1.33 130.23-0.65 129.18-0.25 128.13 0.15 126.78 0.2L126.78 0.2Q124.53 0.3 123.36-0.95 122.18-2.2 121.73-4 121.28-5.8 121.41-7.73 121.53-9.65 121.93-10.9L121.93-10.9Q122.48-12.65 123.26-14.23 124.03-15.8 124.91-17.07 125.78-18.35 126.71-19.28 127.63-20.2 128.53-20.7L128.53-20.7Q128.58-20.7 128.76-20.8 128.93-20.9 128.93-20.75L128.93-20.75Q128.98-20.75 128.88-20.6 128.78-20.45 128.68-20.35L128.68-20.35Q126.08-17.65 124.56-14.25 123.03-10.85 122.83-7.25L122.83-7.25Q122.78-6.35 122.91-5.3 123.03-4.25 123.41-3.33 123.78-2.4 124.48-1.78 125.18-1.15 126.38-1.15L126.38-1.15Q127.33-1.15 128.13-1.48 128.93-1.8 129.63-2.33 130.33-2.85 130.91-3.48 131.48-4.1 131.93-4.65L131.93-4.65Q132.93-5.9 133.78-7.25L133.78-7.25Q133.78-8.25 133.91-9.2 134.03-10.15 134.28-11.1L134.28-11.1Q134.43-11.8 134.56-12.23 134.68-12.65 134.81-13.03 134.93-13.4 135.06-13.83 135.18-14.25 135.43-14.95L135.43-14.95Q134.63-13.55 133.86-12.33 133.08-11.1 132.21-9.98 131.33-8.85 130.41-7.78 129.48-6.7 128.38-5.6L128.38-5.6Q127.53-4.75 126.98-5.05 126.43-5.35 126.33-6.45L126.33-6.45Q126.23-8.15 126.51-9.75 126.78-11.35 127.48-13.1L127.48-13.1Q128.13-14.7 129.11-16.2 130.08-17.7 131.36-18.93 132.63-20.15 134.18-21.03 135.73-21.9 137.48-22.2L137.48-22.2Q137.58-22.75 137.66-23.15 137.73-23.55 137.78-23.95L137.78-23.95Q137.88-24.5 137.88-24.5L137.88-24.5Q137.98-24.55 138.11-24.4 138.23-24.25 138.33-24L138.33-24Q138.93-22.35 138.73-20.7 138.53-19.05 138.01-17.35 137.48-15.65 136.78-13.88 136.08-12.1 135.63-10.3L135.63-10.3Q135.03-7.75 135.31-5.03 135.58-2.3 137.43-0.1L137.43-0.1Q137.58 0.1 137.58 0.1L137.58 0.1Q137.53 0.15 137.28 0L137.28 0Q135.83-0.9 135.11-2.18 134.38-3.45 134.08-4.85ZM135.83-22.55L135.83-22.55Q135.93-22.45 135.81-22.4 135.68-22.35 135.28-22.25L135.28-22.25Q134.63-22.05 133.71-21.5 132.78-20.95 131.76-20.1 130.73-19.25 129.73-18.13 128.73-17 127.98-15.7L127.98-15.7Q127.23-14.35 126.71-13.05 126.18-11.75 125.86-10.68 125.53-9.6 125.38-8.83 125.23-8.05 125.23-7.75L125.23-7.75Q125.23-7 125.23-6.18 125.23-5.35 125.43-4.7 125.63-4.05 126.13-3.7 126.63-3.35 127.63-3.5L127.63-3.5Q127.68-3.5 127.88-3.58 128.08-3.65 128.28-3.73 128.48-3.8 128.66-3.85 128.83-3.9 128.88-3.9L128.88-3.9Q128.93-3.8 128.81-3.65 128.68-3.5 128.48-3.33 128.28-3.15 128.11-3 127.93-2.85 127.88-2.8L127.88-2.8Q126.63-2.05 125.78-2.35 124.93-2.65 124.46-3.48 123.98-4.3 123.81-5.43 123.63-6.55 123.68-7.45L123.68-7.45Q123.78-9.2 124.23-10.93 124.68-12.65 125.38-14.4L125.38-14.4Q125.93-15.75 127.03-17.18 128.13-18.6 129.51-19.8 130.88-21 132.38-21.78 133.88-22.55 135.28-22.6L135.28-22.6Q135.78-22.6 135.83-22.55ZM138.78-0.1L138.78-0.1Q138.88 0.05 138.83 0.1L138.83 0.1Q138.68 0.1 138.43 0L138.43 0Q138.28-0.1 137.63-0.6 136.98-1.1 136.68-2.2L136.68-2.2Q136.58-2.6 136.51-3.23 136.43-3.85 136.43-4.4 136.43-4.95 136.51-5.35 136.58-5.75 136.73-5.75L136.73-5.75Q136.88-5.75 137.06-5.15 137.23-4.55 137.28-4.4L137.28-4.4Q137.43-3.7 137.56-3.18 137.68-2.65 137.83-2.2L137.83-2.2Q138.03-1.65 138.36-0.95 138.68-0.25 138.78-0.1ZM150.08-10.5L150.08-10.5Q150.28-11.75 150.76-13.03 151.23-14.3 151.88-15.38 152.53-16.45 153.33-17.18 154.13-17.9 155.03-18.15L155.03-18.15Q156.18-18.4 156.76-18.25 157.33-18.1 157.43-17.8L157.43-17.8Q157.58-17.35 157.43-16.9 157.28-16.45 157.01-16.1 156.73-15.75 156.41-15.48 156.08-15.2 155.88-15.15L155.88-15.15Q155.63-15.05 155.71-14.9 155.78-14.75 156.18-14.85L156.18-14.85Q156.63-14.9 157.08-15.2 157.53-15.5 157.91-15.95 158.28-16.4 158.48-16.93 158.68-17.45 158.63-18L158.63-18Q158.53-18.55 158.11-18.95 157.68-19.35 157.08-19.55 156.48-19.75 155.73-19.75 154.98-19.75 154.33-19.5L154.33-19.5Q153.03-19 152.06-18.03 151.08-17.05 150.36-15.78 149.63-14.5 149.18-13.03 148.73-11.55 148.43-10.05L148.43-10.05Q148.03-8.2 148.18-6.43 148.33-4.65 149.33-3.65L149.33-3.65Q149.83-3.15 150.63-2.95 151.43-2.75 152.33-2.78 153.23-2.8 154.16-3.1 155.08-3.4 155.88-3.9L155.88-3.9Q156.08-4 156.21-4.1 156.33-4.2 156.23-4.25L156.23-4.25Q156.18-4.3 155.83-4.2L155.83-4.2Q153.38-3.6 152.03-3.7 150.68-3.8 150.11-4.6 149.53-5.4 149.61-6.88 149.68-8.35 150.08-10.5ZM150.68-0.2L150.68-0.2Q149.08-0.3 147.63-1.23 146.18-2.15 145.63-3.55L145.63-3.55Q145.08-5 144.93-6.33 144.78-7.65 144.88-8.9L144.88-8.9Q145.08-11.5 145.91-14.13 146.73-16.75 148.48-18.85L148.48-18.85Q149.58-20.15 150.68-21.03 151.78-21.9 153.58-22.4L153.58-22.4Q154.48-22.65 155.53-22.7 156.58-22.75 157.61-22.48 158.63-22.2 159.53-21.55 160.43-20.9 161.13-19.8L161.13-19.8Q161.28-19.3 161.43-19.3L161.43-19.3Q161.58-19.45 161.43-19.85L161.43-19.85Q161.13-21.45 159.81-22.4 158.48-23.35 156.71-23.6 154.93-23.85 153.03-23.43 151.13-23 149.68-21.8L149.68-21.8Q147.73-20.25 146.41-18.23 145.08-16.2 144.33-13.95 143.58-11.7 143.43-9.3 143.28-6.9 143.78-4.6L143.78-4.6Q144.08-3.1 144.81-2.18 145.53-1.25 146.48-0.73 147.43-0.2 148.53-0.05 149.63 0.1 150.73 0.05L150.73 0.05Q151.03 0.05 151.11 0 151.18-0.05 151.18-0.1L151.18-0.1Q151.18-0.2 150.68-0.2ZM146.78-12.25L146.78-12.25Q146.78-12.2 146.76-12 146.73-11.8 146.71-11.6 146.68-11.4 146.68-11.23 146.68-11.05 146.78-11.05L146.78-11.05Q146.88-11.05 147.11-11.55 147.33-12.05 147.33-12.1L147.33-12.1Q148.63-15.1 150.43-17.4L150.43-17.4Q150.58-17.55 151.03-18.07 151.48-18.6 152.23-19.15 152.98-19.7 154.03-20.1 155.08-20.5 156.38-20.35L156.38-20.35Q157.73-20.2 158.58-19.35 159.43-18.5 159.18-17.35L159.18-17.35Q158.98-16.25 158.41-15.5 157.83-14.75 157.28-14.5L157.28-14.5Q156.88-14.35 157.06-14.3 157.23-14.25 157.33-14.25L157.33-14.25Q157.93-14.3 158.61-14.73 159.28-15.15 159.78-15.83 160.28-16.5 160.48-17.35 160.68-18.2 160.33-19.2L160.33-19.2Q159.93-20.25 159.18-20.88 158.43-21.5 157.53-21.78 156.63-22.05 155.71-22.05 154.78-22.05 154.13-21.9L154.13-21.9Q152.23-21.4 150.93-20.45 149.63-19.5 148.81-18.23 147.98-16.95 147.53-15.43 147.08-13.9 146.78-12.25ZM156.88-3.2L156.88-3.2Q157.08-3.5 157.06-3.6 157.03-3.7 156.93-3.68 156.83-3.65 156.66-3.53 156.48-3.4 156.38-3.35L156.38-3.35Q155.38-2.65 154.16-2.23 152.93-1.8 151.43-1.8L151.43-1.8Q150.68-1.8 149.66-2.33 148.63-2.85 148.08-3.4L148.08-3.4Q147.88-3.65 147.66-3.88 147.43-4.1 147.28-4.05L147.28-4.05Q147.08-3.85 147.28-3.5L147.28-3.5Q148.03-1.75 149.18-1.25 150.33-0.75 151.63-0.75L151.63-0.75Q152.38-0.75 153.16-0.95 153.93-1.15 154.66-1.48 155.38-1.8 155.96-2.25 156.53-2.7 156.88-3.2ZM179.08-23.35L179.08-23.35Q179.28-22.55 179.15-21.75 179.03-20.95 178.75-20.25 178.48-19.55 178.05-19.03 177.63-18.5 177.23-18.2L177.23-18.2Q176.03-17.35 174.53-16.63 173.03-15.9 171.58-15.35L171.58-15.35Q171.48-15.3 171.23-15.23 170.98-15.15 170.88-15.3L170.88-15.3Q170.83-15.35 170.95-15.55 171.08-15.75 171.13-15.8L171.13-15.8Q171.63-16.4 172.48-17.1 173.33-17.8 173.98-18.2L173.98-18.2Q174.18-18.35 174.95-18.95 175.73-19.55 176.55-20.38 177.38-21.2 178.08-22.05 178.78-22.9 178.83-23.5L178.83-23.5Q178.83-23.6 178.85-23.63 178.88-23.65 178.88-23.7L178.88-23.7Q178.88-23.75 178.93-23.75L178.93-23.75Q179.03-23.7 179.05-23.58 179.08-23.45 179.08-23.35ZM169.68-27.4L169.68-27.4Q168.98-24.35 167.83-21.23 166.68-18.1 165.38-15.4L165.38-15.4Q165.28-15.15 165.1-14.73 164.93-14.3 164.78-14.3L164.78-14.3Q164.68-14.4 164.7-14.83 164.73-15.25 164.78-15.4L164.78-15.4Q164.93-16.15 165.18-17.3 165.43-18.45 165.75-19.75 166.08-21.05 166.4-22.3 166.73-23.55 167.03-24.5L167.03-24.5Q168.03-27.85 168.33-31.13 168.63-34.4 168.08-37.4L168.08-37.4Q168.03-37.6 168.05-37.7 168.08-37.8 168.08-37.85L168.08-37.85Q168.33-37.95 168.53-37.55L168.53-37.55Q169.13-36.75 169.48-35.48 169.83-34.2 169.95-32.77 170.08-31.35 170-29.93 169.93-28.5 169.68-27.4ZM166.78-38.65L166.78-38.65Q167.78-36.2 167.68-33.43 167.58-30.65 166.88-27.7 166.18-24.75 165.15-21.73 164.13-18.7 163.28-15.75L163.28-15.75Q162.73-13.9 162.4-11.83 162.08-9.75 162.08-7.68 162.08-5.6 162.48-3.65 162.88-1.7 163.83-0.05L163.83-0.05Q163.98 0.2 163.8 0.15 163.63 0.1 163.53 0L163.53 0Q162.28-1.55 161.65-3.58 161.03-5.6 160.9-7.85 160.78-10.1 161.08-12.45 161.38-14.8 161.98-16.9L161.98-16.9Q162.88-19.85 163.8-22.75 164.73-25.65 165.43-28.4 166.13-31.15 166.45-33.73 166.78-36.3 166.43-38.65L166.43-38.65Q166.43-38.75 166.4-38.88 166.38-39 166.48-39L166.48-39Q166.58-39 166.65-38.88 166.73-38.75 166.78-38.65ZM180.03-1.25L180.03-1.25Q180.43-1.15 180.33-1 180.23-0.85 180.08-0.8L180.08-0.8Q178.53-0.4 177.08-0.65 175.63-0.9 174.68-1.6L174.68-1.6Q173.43-2.5 172.5-3.95 171.58-5.4 170.73-6.7L170.73-6.7Q170.68-6.8 170.58-6.98 170.48-7.15 170.53-7.25L170.53-7.25Q170.63-7.4 170.8-7.33 170.98-7.25 171.03-7.2L171.03-7.2Q171.68-6.9 172.6-6.25 173.53-5.6 173.98-5.05L173.98-5.05Q174.38-4.6 175.08-3.98 175.78-3.35 176.6-2.8 177.43-2.25 178.33-1.8 179.23-1.35 180.03-1.25ZM181.63-2.35L181.63-2.35Q181.88-2.3 181.75-2.2 181.63-2.1 181.43-2.1L181.43-2.1Q179.83-1.8 178.58-2.43 177.33-3.05 176.25-4.08 175.18-5.1 174.15-6.3 173.13-7.5 171.98-8.45L171.98-8.45Q170.53-9.6 168.4-10.1 166.28-10.6 163.83-9.65L163.83-9.65Q163.58-9.55 163.63-9.7 163.68-9.85 163.78-9.95L163.78-9.95Q164.23-10.25 164.73-10.53 165.23-10.8 165.68-10.95L165.68-10.95Q166.28-13.6 167.13-16.23 167.98-18.85 168.83-21.6L168.83-21.6Q169.63-24.15 170.28-26.95 170.93-29.75 170.83-32.9L170.83-32.9Q170.83-33.2 170.93-33.2L170.93-33.2Q171.03-33.2 171.05-33.05 171.08-32.9 171.18-32.8L171.18-32.8Q171.68-31.75 171.68-30 171.68-28.25 171.38-26.23 171.08-24.2 170.58-22.1 170.08-20 169.58-18.3L169.58-18.3Q170.58-19.35 171.8-20.08 173.03-20.8 174.25-21.48 175.48-22.15 176.53-23 177.58-23.85 178.23-25.15L178.23-25.15Q178.23-25.2 178.25-25.25 178.28-25.3 178.33-25.2L178.33-25.2Q178.33-25.15 178.35-25.05 178.38-24.95 178.38-24.85L178.38-24.85Q178.28-23.25 177.43-22.18 176.58-21.1 175.38-20.25 174.18-19.4 172.78-18.65 171.38-17.9 170.18-17L170.18-17Q168.73-15.9 168.23-14.35 167.73-12.8 167.38-11.3L167.38-11.3Q167.63-11.65 167.9-12.08 168.18-12.5 168.43-12.88 168.68-13.25 168.88-13.45 169.08-13.65 169.18-13.55L169.18-13.55Q169.23-13.5 169.15-13.23 169.08-12.95 168.98-12.6 168.88-12.25 168.78-11.9 168.68-11.55 168.63-11.35L168.63-11.35Q168.88-11.3 169.05-11.3 169.23-11.3 169.38-11.25L169.38-11.25Q170.53-12.9 172.08-14.03 173.63-15.15 175.33-16.15L175.33-16.15Q176.48-16.85 177.55-17.65 178.63-18.45 179.48-19.75L179.48-19.75Q179.53-19.9 179.63-19.8L179.63-19.8Q179.68-19.75 179.65-19.68 179.63-19.6 179.68-19.45L179.68-19.45Q179.73-18.4 179.08-17.45 178.43-16.5 177.48-15.7 176.53-14.9 175.53-14.25 174.53-13.6 173.98-13.15L173.98-13.15Q173.18-12.55 172.23-12.03 171.28-11.5 170.43-11.05L170.43-11.05Q171.93-10.55 173.23-9.45L173.23-9.45Q174.38-8.55 175.38-7.43 176.38-6.3 177.38-5.25 178.38-4.2 179.4-3.4 180.43-2.6 181.63-2.35ZM165.93-7.1L165.93-7.1Q165.83-6.8 165.65-6.25 165.48-5.7 165.38-5.2L165.38-5.2Q165.28-4.95 165.25-4.7 165.23-4.45 165.13-4.5L165.13-4.5Q164.98-4.55 164.9-4.9 164.83-5.25 164.83-5.5L164.83-5.5Q164.83-5.85 164.83-6.3 164.83-6.75 164.9-7.13 164.98-7.5 165.2-7.75 165.43-8 165.88-8L165.88-8Q166.53-7.95 167.3-7.53 168.08-7.1 168.88-6.43 169.68-5.75 170.48-4.93 171.28-4.1 172.08-3.25L172.08-3.25Q172.93-2.3 173.95-1.33 174.98-0.35 176.43 0.05L176.43 0.05Q176.63 0.15 176.63 0.23 176.63 0.3 176.38 0.3L176.38 0.3Q175.38 0.3 174.35-0.13 173.33-0.55 172.35-1.18 171.38-1.8 170.55-2.5 169.73-3.2 169.13-3.75L169.13-3.75Q168.28-4.55 167.45-5.45 166.63-6.35 165.93-7.1ZM165.33-0.05L165.33-0.05Q165.43 0.1 165.3 0.15 165.18 0.2 164.93 0L164.93 0Q164.33-0.55 163.83-1.33 163.33-2.1 163.08-3.7L163.08-3.7Q162.88-4.65 162.8-5.73 162.73-6.8 162.98-7.65 163.23-8.5 163.93-9.08 164.63-9.65 165.98-9.65L165.98-9.65Q166.33-9.65 166.78-9.55 167.23-9.45 167.6-9.33 167.98-9.2 168.2-9.03 168.43-8.85 168.28-8.7L168.28-8.7Q168.23-8.55 167.75-8.6 167.28-8.65 167.18-8.65L167.18-8.65Q166.58-8.75 166-8.78 165.43-8.8 164.98-8.65 164.53-8.5 164.25-8.08 163.98-7.65 163.98-6.85L163.98-6.85Q163.98-5.15 164.28-3.65L164.28-3.65Q164.48-2.65 164.7-1.78 164.93-0.9 165.33-0.05ZM186.43-18.45L186.43-18.45Q186.48-18.9 186.73-19.53 186.98-20.15 187.4-20.73 187.83-21.3 188.43-21.78 189.03-22.25 189.78-22.4L189.78-22.4Q191.38-22.7 192.43-22.2 193.48-21.7 194.03-21.05L194.03-21.05Q194.23-20.75 194.18-20.7L194.18-20.7Q194.08-20.6 193.83-20.75L193.83-20.75Q193.53-20.95 192.85-21.1 192.18-21.25 191.4-21.18 190.63-21.1 189.9-20.7 189.18-20.3 188.73-19.4L188.73-19.4Q188.33-18.55 188.18-17.65 188.03-16.75 188-15.98 187.98-15.2 188.03-14.65 188.08-14.1 188.08-13.9L188.08-13.9Q188.18-13.35 188.25-12.53 188.33-11.7 188.33-10.85 188.33-10 188.28-9.18 188.23-8.35 188.08-7.75L188.08-7.75Q188.03-7.6 187.95-7.25 187.88-6.9 187.78-6.9L187.78-6.9Q187.53-6.9 187.53-7.25 187.53-7.6 187.53-7.75L187.53-7.75Q187.43-9 187.18-10.28 186.93-11.55 186.7-12.9 186.48-14.25 186.38-15.63 186.28-17 186.43-18.45ZM184.68-8.55L184.68-8.55Q184.73-9.55 184.5-11.38 184.28-13.2 184.33-15.6L184.33-15.6Q184.38-16.85 184.58-18.18 184.78-19.5 185.53-20.8L185.53-20.8Q186.33-22.2 187.55-22.88 188.78-23.55 189.68-23.5L189.68-23.5Q189.83-23.5 189.98-23.5 190.13-23.5 190.13-23.45L190.13-23.45Q190.13-23.35 190.08-23.38 190.03-23.4 189.73-23.3L189.73-23.3Q188.83-23.05 188.13-22.48 187.43-21.9 186.93-21.15 186.43-20.4 186.13-19.6 185.83-18.8 185.78-18.15L185.78-18.15Q185.48-15.4 185.83-13.35L185.83-13.35Q186.08-11.7 186.23-9.93 186.38-8.15 186.1-6.68 185.83-5.2 185.05-4.23 184.28-3.25 182.68-3.15L182.68-3.15Q182.53-3.15 182.3-3.18 182.08-3.2 182.08-3.3L182.08-3.3Q182.08-3.4 182.53-3.65L182.53-3.65Q183.83-4.25 184.23-5.4 184.63-6.55 184.68-8.55ZM179.38-2.65L179.38-2.65Q180.08-1.55 181.6-1.03 183.13-0.5 185.23-1.1L185.23-1.1Q186.28-1.4 187.08-2.15 187.88-2.9 188.4-3.83 188.93-4.75 189.2-5.75 189.48-6.75 189.53-7.6L189.53-7.6Q189.58-9 189.45-10.35 189.33-11.7 189.15-12.98 188.98-14.25 188.85-15.45 188.73-16.65 188.83-17.8L188.83-17.8Q188.93-19.05 189.53-19.7 190.13-20.35 191-20.53 191.88-20.7 192.83-20.4 193.78-20.1 194.58-19.45L194.58-19.45Q194.78-19.35 194.73-19.2L194.73-19.2Q194.73-19.1 194.63-19.15 194.53-19.2 194.43-19.25L194.43-19.25Q192.58-19.85 191.55-19.6 190.53-19.35 190.43-17.8L190.43-17.8Q190.33-16 190.7-13.58 191.08-11.15 190.98-8.2L190.98-8.2Q191.03-7.2 190.75-5.9 190.48-4.6 189.85-3.38 189.23-2.15 188.2-1.2 187.18-0.25 185.78 0L185.78 0Q183.13 0.4 181.55-0.3 179.98-1 179.28-2.45L179.28-2.45Q179.18-2.75 179.18-2.8L179.18-2.8 179.23-2.8Q179.23-2.8 179.38-2.65ZM181.58-2.65L181.58-2.65Q182.53-2.4 183.88-2.45L183.88-2.45Q184.33-2.5 184.98-2.7 185.63-2.9 185.68-2.8L185.68-2.8Q185.83-2.6 185.38-2.3 184.93-2 184.23-1.78 183.53-1.55 182.78-1.48 182.03-1.4 181.53-1.6L181.53-1.6Q180.58-2 180.15-2.48 179.73-2.95 179.38-3.65L179.38-3.65 179.28-3.85Q179.18-4.05 179.23-4.1L179.23-4.1Q179.28-4.15 179.38-4.1L179.38-4.1Q179.43-4.05 179.43-4L179.43-4Q180.03-3.45 180.45-3.18 180.88-2.9 181.58-2.65Z" opacity="1" transform="matrix(1,0,0,1,0,0)" fill="#000000" class="wordmark-text-0" data-fill-palette-color="primary" id="text-0"></path></svg></g></svg></g></svg></g></svg></g><g><svg viewBox="0 0 193.85221468887642 193.85221468887642" height="193.85221468887642" width="193.85221468887642"><g><svg></svg></g><g id="icon-0"><svg viewBox="0 0 193.85221468887642 193.85221468887642" height="193.85221468887642" width="193.85221468887642"><g><path d="M0 96.926c0-53.531 43.395-96.926 96.926-96.926 53.531 0 96.926 43.395 96.926 96.926 0 53.531-43.395 96.926-96.926 96.926-53.531 0-96.926-43.395-96.926-96.926zM96.926 186.62c49.536 0 89.693-40.157 89.694-89.694 0-49.536-40.157-89.693-89.694-89.693-49.536 0-89.693 40.157-89.693 89.693 0 49.536 40.157 89.693 89.693 89.694z" data-fill-palette-color="accent" fill="#000000" stroke="transparent"></path></g><g transform="matrix(1,0,0,1,45.78348649983987,42.14523929545198)"><svg viewBox="0 0 102.28524168919668 109.56173609797246" height="109.56173609797246" width="102.28524168919668"><g><svg xmlns="http://www.w3.org/2000/svg" xmlns:xlink="http://www.w3.org/1999/xlink" version="1.1" x="0" y="0" viewBox="9.5 7.5 79 84.62" enable-background="new 0 0 100 100" xml:space="preserve" height="109.56173609797246" width="102.28524168919668" class="icon-dxe-0" data-fill-palette-color="accent" id="dxe-0"><path fill="#000000" d="M84.73 90.62C84.73 91.45 84.049 92.12 83.23 92.12H60.58C59.75 92.12 59.08 91.45 59.08 90.62 59.08 89.8 59.75 89.12 60.58 89.12H70.4V72.45C55.48 71.48 55.3 56.05 55.3 55.9L55.31 55.69 58.331 33.79C58.451 32.97 59.201 32.4 60.02 32.51 60.84 32.63 61.42 33.38 61.31 34.2L58.3 55.99C58.33 57.29 58.95 69.5 71.901 69.5 84.84 69.5 85.47 57.3 85.501 55.99L82.49 34.2C82.38 33.38 82.95 32.63 83.769 32.51 84.589 32.4 85.349 32.97 85.469 33.79L88.5 55.9C88.5 56.049 88.32 71.48 73.4 72.45V89.12H83.23C84.05 89.12 84.73 89.8 84.73 90.62" data-fill-palette-color="accent"></path><path fill="#000000" d="M82.791 56.505C82.743 57.92 82.062 67.233 71.899 67.233 61.812 67.233 61.063 58.179 61.008 56.505L61.409 53.618H82.39z" data-fill-palette-color="accent"></path><path fill="#000000" d="M9.5 7.5V61.5H49C49.83 61.5 50.5 60.83 50.5 60 50.5 59.82 50.47 59.66 50.41 59.5 50.47 59.34 50.5 59.18 50.5 59V35.5H53C53.83 35.5 54.5 34.83 54.5 34S53.83 32.5 53 32.5H50.5V22.5H59.5V28C59.5 28.83 60.17 29.5 61 29.5S62.5 28.83 62.5 28V22.5H71.5V28C71.5 28.83 72.17 29.5 73 29.5S74.5 28.83 74.5 28V7.5zM21.5 58.5H12.5V48.5H21.5zM21.5 45.5H12.5V35.5H21.5zM21.5 32.5H12.5V22.5H21.5zM21.5 11V19.5H12.5V10.5H21.59C21.53 10.66 21.5 10.82 21.5 11M34.5 58.5H24.5V48.5H34.5zM34.5 45.5H24.5V35.5H34.5zM34.5 32.5H24.5V22.5H34.5zM34.5 11V19.5H24.5V11C24.5 10.82 24.47 10.66 24.41 10.5H34.59C34.53 10.66 34.5 10.82 34.5 11M47.5 58.5H37.5V48.5H47.5zM47.5 45.5H37.5V35.5H47.5zM47.5 32.5H37.5V22.5H47.5zM47.5 11V19.5H37.5V11C37.5 10.82 37.47 10.66 37.41 10.5H47.59C47.53 10.66 47.5 10.82 47.5 11M59.5 11V19.5H50.5V11C50.5 10.82 50.47 10.66 50.41 10.5H59.59C59.53 10.66 59.5 10.82 59.5 11M71.5 19.5H62.5V11C62.5 10.82 62.47 10.66 62.41 10.5H71.5z" data-fill-palette-color="accent"></path></svg></g></svg></g></svg></g></svg></g></svg></g><defs></defs></svg><rect width="395.52" height="122.23783981144207" fill="none" stroke="none" visibility="hidden"></rect></g></svg></g></svg>